<?xml version="1.0" standalone="no"?>
<!DOCTYPE svg PUBLIC "-//W3C//DTD SVG 20010904//EN"
 "http://www.w3.org/TR/2001/REC-SVG-20010904/DTD/svg10.dtd">
<svg version="1.0" xmlns="http://www.w3.org/2000/svg"
 width="512.000000pt" height="512.000000pt" viewBox="0 0 512.000000 512.000000"
 preserveAspectRatio="xMidYMid meet">

<g transform="translate(0.000000,512.000000) scale(0.100000,-0.100000)"
fill="#000000" stroke="none">
<path d="M241 3543 c-27 -23 -204 -632 -195 -670 4 -13 16 -31 29 -39 12 -8
206 -90 431 -183 l409 -169 5 -442 5 -442 24 -19 c23 -18 55 -19 1106 -19 596
0 1090 3 1098 6 9 3 267 338 574 744 l558 738 113 43 c154 58 165 53 192 -93
13 -71 35 -104 75 -114 30 -7 71 17 87 51 15 33 -23 206 -57 256 -31 48 -99
88 -161 95 -60 7 70 52 -1124 -385 -446 -163 -617 -221 -649 -221 -63 0 -123
38 -148 92 -11 24 -28 74 -38 113 -32 120 -17 115 -340 115 l-275 0 0 160 0
160 135 0 c131 0 137 1 160 25 33 32 33 78 0 110 l-24 25 -351 0 -351 0 -24
-25 c-33 -32 -33 -78 0 -110 23 -24 29 -25 160 -25 l135 0 0 -160 0 -160 -360
0 -360 0 0 84 c0 74 -3 88 -22 110 -26 29 -738 366 -773 366 -13 0 -32 -8 -44
-17z m679 -669 l0 -222 -346 143 c-190 79 -348 145 -350 147 -2 3 17 76 42
164 24 87 51 182 59 210 l15 52 290 -136 290 -137 0 -221z m2847 -246 c-134
-178 -343 -453 -464 -613 l-220 -290 -1001 -3 -1002 -2 0 560 0 560 671 -2
671 -3 18 -57 c53 -173 176 -265 340 -256 68 4 127 24 645 215 314 116 574
211 578 212 4 1 -102 -144 -236 -321z"/>
<path d="M4643 2507 c-51 -29 -240 -296 -304 -432 -73 -155 -76 -245 -14 -371
42 -86 102 -144 193 -187 61 -29 76 -32 162 -32 86 0 101 3 162 32 91 43 151
101 194 187 47 97 55 184 24 276 -39 116 -129 269 -262 441 -72 94 -107 113
-155 86z m120 -313 c82 -118 144 -238 153 -293 11 -67 -13 -129 -70 -186 -102
-101 -230 -101 -332 0 -87 87 -94 166 -27 298 58 117 179 290 197 284 6 -2 42
-48 79 -103z"/>
</g>
</svg>
